<svg xmlns="http://www.w3.org/2000/svg" width="34.875" height="34.004" viewBox="0 0 34.875 34.004">
  <path id="github-icon" d="M-5.773-3.558c0-.162-.183-.274-.394-.253-.2,0-.366.113-.366.253,0,.162.162.274.394.253C-5.934-3.3-5.773-3.417-5.773-3.558Zm-2.187-.316c-.049.141.091.3.3.344a.33.33,0,0,0,.436-.141c.042-.141-.091-.3-.3-.366A.361.361,0,0,0-7.959-3.874Zm3.108-.12c-.2.049-.345.183-.323.344.021.141.2.232.415.183s.345-.183.323-.323S-4.648-4.015-4.852-3.994ZM-.225-30.937A16.86,16.86,0,0,0-17.437-13.781,17.628,17.628,0,0,0-5.52,3.038c.9.162,1.216-.394,1.216-.851,0-.436-.021-2.841-.021-4.317,0,0-4.922,1.055-5.955-2.1,0,0-.8-2.046-1.955-2.573,0,0-1.61-1.1.112-1.083A3.712,3.712,0,0,1-9.408-6.068,3.717,3.717,0,0,0-4.282-4.6,3.908,3.908,0,0,1-3.157-6.968c-3.93-.436-7.9-1.006-7.9-7.77a5.329,5.329,0,0,1,1.659-4.141,6.643,6.643,0,0,1,.183-4.774c1.47-.457,4.852,1.9,4.852,1.9a16.521,16.521,0,0,1,4.416-.6,16.521,16.521,0,0,1,4.416.6s3.382-2.362,4.852-1.9a6.64,6.64,0,0,1,.183,4.774,5.466,5.466,0,0,1,1.814,4.141c0,6.785-4.141,7.326-8.072,7.77a4.158,4.158,0,0,1,1.2,3.262c0,2.37-.021,5.3-.021,5.878,0,.457.323,1.012,1.216.851a17.466,17.466,0,0,0,11.8-16.8C17.437-23.534,9.527-30.937-.225-30.937ZM-10.6-6.687c-.091.07-.07.232.049.366.112.113.274.162.366.07.091-.07.07-.232-.049-.366C-10.35-6.729-10.512-6.778-10.6-6.687Zm-.759-.57c-.049.091.021.2.162.274a.209.209,0,0,0,.3-.049c.049-.091-.021-.2-.162-.274C-11.2-7.348-11.313-7.327-11.362-7.256Zm2.278,2.5c-.112.091-.07.3.091.436.162.162.366.183.457.07.091-.091.049-.3-.091-.436C-8.782-4.845-8.993-4.866-9.084-4.753Zm-.8-1.034c-.113.07-.113.253,0,.415s.3.232.394.162a.321.321,0,0,0,0-.436C-9.591-5.808-9.773-5.878-9.886-5.787Z" transform="translate(17.438 30.937)" fill="#9b84c0"/>
</svg>
