<svg xmlns="http://www.w3.org/2000/svg" width="31.5" height="31.499" viewBox="0 0 31.5 31.499">
  <path id="linkedin-icon" d="M-8.7,0V-21.03H-15.23V0Zm-3.269-23.9a3.814,3.814,0,0,0,3.782-3.818A3.784,3.784,0,0,0-11.968-31.5a3.784,3.784,0,0,0-3.782,3.782A3.814,3.814,0,0,0-11.968-23.9ZM15.743,0h.007V-11.552c0-5.653-1.215-10.005-7.824-10.005a6.862,6.862,0,0,0-6.179,3.4H1.655V-21.03H-4.608V0H1.915V-10.413c0-2.742.52-5.393,3.916-5.393,3.346,0,3.4,3.129,3.4,5.569V0Z" transform="translate(15.75 31.499)" fill="#9b84c0"/>
</svg>
