<svg xmlns="http://www.w3.org/2000/svg" width="31.517" height="31.51" viewBox="0 0 31.517 31.51">
  <path id="instagram-icon" d="M.007-21.586a8.066,8.066,0,0,0-8.079,8.079A8.066,8.066,0,0,0,.007-5.428a8.066,8.066,0,0,0,8.079-8.079A8.066,8.066,0,0,0,.007-21.586Zm0,13.331a5.262,5.262,0,0,1-5.252-5.252A5.257,5.257,0,0,1,.007-18.759a5.257,5.257,0,0,1,5.252,5.252A5.262,5.262,0,0,1,.007-8.255ZM10.3-21.916A1.884,1.884,0,0,0,8.416-23.8a1.884,1.884,0,0,0-1.884,1.884,1.88,1.88,0,0,0,1.884,1.884A1.88,1.88,0,0,0,10.3-21.916ZM15.651-20a9.325,9.325,0,0,0-2.545-6.6,9.387,9.387,0,0,0-6.6-2.545c-2.6-.148-10.4-.148-13,0a9.373,9.373,0,0,0-6.6,2.538,9.356,9.356,0,0,0-2.545,6.6c-.148,2.6-.148,10.4,0,13A9.325,9.325,0,0,0-13.1-.408,9.4,9.4,0,0,0-6.5,2.138c2.6.148,10.4.148,13,0a9.325,9.325,0,0,0,6.6-2.545,9.387,9.387,0,0,0,2.545-6.6C15.8-9.612,15.8-17.4,15.651-20ZM12.291-4.219a5.317,5.317,0,0,1-3,3C7.221-.4,2.3-.591.007-.591s-7.221.183-9.288-.633a5.317,5.317,0,0,1-3-3c-.823-2.074-.633-7-.633-9.288s-.183-7.221.633-9.288a5.317,5.317,0,0,1,3-3c2.074-.823,7-.633,9.288-.633s7.221-.183,9.288.633a5.317,5.317,0,0,1,3,3c.823,2.074.633,7,.633,9.288S13.113-6.286,12.291-4.219Z" transform="translate(15.755 29.262)" fill="#5f4b8b"/>
</svg>
